<?xml version="1.0" encoding="utf-8"?>
<!-- Generator: Adobe Illustrator 23.1.1, SVG Export Plug-In . SVG Version: 6.00 Build 0)  -->
<svg version="1.1" id="Layer_1" xmlns="http://www.w3.org/2000/svg" xmlns:xlink="http://www.w3.org/1999/xlink" x="0px" y="0px"
	 viewBox="0 0 1000 230" style="enable-background:new 0 0 1000 230;" xml:space="preserve">
<style type="text/css">
	.st0{fill:#FFFFFF;}
</style>
<g id="slot_3_">
	<g>
		<g>
			<path class="st0" d="M963,220.3L963,220.3L963,220.3c-3.3,0-5.9-2.6-5.9-5.9l0,0c0-3.2,2.6-5.9,5.9-5.9l0,0l0,0l0,0l0,0l0,0
				c3.2,0,5.9,2.6,5.9,5.8l0,0C969,217.6,966.4,220.2,963,220.3L963,222.9C963.1,222.9,963.1,222.9,963,222.9L963,222.9
				C963.1,222.9,963.1,222.9,963,222.9z M924.1,214.4c0-3.2,2.6-5.9,5.9-5.9l0,0c3.2,0,5.9,2.6,5.9,5.9l0,0c0,3.2-2.6,5.9-5.9,5.9l0,0
				C926.7,220.3,924.1,217.6,924.1,214.4z M891,214.4c0-3.2,2.6-5.9,5.9-5.9l0,0c3.2,0,5.9,2.6,5.9,5.9l0,0c0,3.2-2.6,5.9-5.9,5.9l0,0
				C893.6,220.3,891,217.6,891,214.4z M857.9,214.4c0-3.2,2.6-5.9,5.9-5.9l0,0c3.2,0,5.9,2.6,5.9,5.9l0,0c0,3.2-2.6,5.9-5.9,5.9l0,0
				C860.6,220.3,857.9,217.6,857.9,214.4z M824.9,214.4c0-3.2,2.6-5.9,5.9-5.9l0,0c3.2,0,5.9,2.6,5.9,5.9l0,0c0,3.2-2.6,5.9-5.9,5.9l0,0
				C827.5,220.3,824.9,217.6,824.9,214.4z M791.8,214.4c0-3.2,2.6-5.9,5.9-5.9l0,0c3.2,0,5.9,2.6,5.9,5.9l0,0c0,3.2-2.6,5.9-5.9,5.9l0,0
				C794.4,220.3,791.8,217.6,791.8,214.4z M758.7,214.4c0-3.2,2.6-5.9,5.9-5.9l0,0c3.2,0,5.9,2.6,5.9,5.9l0,0c0,3.2-2.6,5.9-5.9,5.9l0,0
				C761.4,220.3,758.7,217.6,758.7,214.4z M725.7,214.4c0-3.2,2.6-5.9,5.9-5.9l0,0c3.2,0,5.9,2.6,5.9,5.9l0,0c0,3.2-2.6,5.9-5.9,5.9l0,0
				C728.3,220.3,725.7,217.6,725.7,214.4z M692.6,214.4c0-3.2,2.6-5.9,5.9-5.9l0,0c3.2,0,5.9,2.6,5.9,5.9l0,0c0,3.2-2.6,5.9-5.9,5.9l0,0
				C695.2,220.3,692.6,217.6,692.6,214.4z M659.5,214.4c0-3.2,2.6-5.9,5.9-5.9l0,0c3.2,0,5.9,2.6,5.9,5.9l0,0c0,3.2-2.6,5.9-5.9,5.9l0,0
				C662.1,220.3,659.5,217.6,659.5,214.4z M626.5,214.4c0-3.2,2.6-5.9,5.9-5.9l0,0c3.2,0,5.9,2.6,5.9,5.9l0,0c0,3.2-2.6,5.9-5.9,5.9l0,0
				C629.1,220.3,626.5,217.6,626.5,214.4z M593.4,214.4c0-3.2,2.6-5.9,5.9-5.9l0,0c3.2,0,5.9,2.6,5.9,5.9l0,0c0,3.2-2.6,5.9-5.9,5.9l0,0
				C596,220.3,593.4,217.6,593.4,214.4z M560.3,214.4c0-3.2,2.6-5.9,5.9-5.9l0,0c3.2,0,5.9,2.6,5.9,5.9l0,0c0,3.2-2.6,5.9-5.9,5.9l0,0
				C562.9,220.3,560.3,217.6,560.3,214.4z M527.3,214.4c0-3.2,2.6-5.9,5.9-5.9l0,0c3.2,0,5.9,2.6,5.9,5.9l0,0c0,3.2-2.6,5.9-5.9,5.9l0,0
				C529.9,220.3,527.3,217.6,527.3,214.4z M494.2,214.4c0-3.2,2.6-5.9,5.9-5.9l0,0c3.2,0,5.9,2.6,5.9,5.9l0,0c0,3.2-2.6,5.9-5.9,5.9l0,0
				C496.8,220.3,494.2,217.6,494.2,214.4z M461.1,214.4c0-3.2,2.6-5.9,5.9-5.9l0,0c3.2,0,5.9,2.6,5.9,5.9l0,0c0,3.2-2.6,5.9-5.9,5.9l0,0
				C463.7,220.3,461.1,217.6,461.1,214.4z M428,214.4c0-3.2,2.6-5.9,5.9-5.9l0,0c3.2,0,5.9,2.6,5.9,5.9l0,0c0,3.2-2.6,5.9-5.9,5.9l0,0
				C430.7,220.3,428,217.6,428,214.4z M395,214.4c0-3.2,2.6-5.9,5.9-5.9l0,0c3.2,0,5.9,2.6,5.9,5.9l0,0c0,3.2-2.6,5.9-5.9,5.9l0,0
				C397.6,220.3,395,217.6,395,214.4z M361.9,214.4c0-3.2,2.6-5.9,5.9-5.9l0,0c3.2,0,5.9,2.6,5.9,5.9l0,0c0,3.2-2.6,5.9-5.9,5.9l0,0
				C364.5,220.3,361.9,217.6,361.9,214.4z M328.8,214.4c0-3.2,2.6-5.9,5.9-5.9l0,0c3.2,0,5.9,2.6,5.9,5.9l0,0c0,3.2-2.6,5.9-5.9,5.9l0,0
				C331.5,220.3,328.8,217.6,328.8,214.4z M295.8,214.4c0-3.2,2.6-5.9,5.9-5.9l0,0c3.2,0,5.9,2.6,5.9,5.9l0,0c0,3.2-2.6,5.9-5.9,5.9l0,0
				C298.4,220.3,295.8,217.6,295.8,214.4z M262.7,214.4c0-3.2,2.6-5.9,5.9-5.9l0,0c3.2,0,5.9,2.6,5.9,5.9l0,0c0,3.2-2.6,5.9-5.9,5.9l0,0
				C265.3,220.3,262.7,217.6,262.7,214.4z M229.6,214.4c0-3.2,2.6-5.9,5.9-5.9l0,0c3.2,0,5.9,2.6,5.9,5.9l0,0c0,3.2-2.6,5.9-5.9,5.9l0,0
				C232.3,220.3,229.6,217.6,229.6,214.4z M196.6,214.4c0-3.2,2.6-5.9,5.9-5.9l0,0c3.2,0,5.9,2.6,5.9,5.9l0,0c0,3.2-2.6,5.9-5.9,5.9l0,0
				C199.2,220.3,196.6,217.6,196.6,214.4z M163.5,214.4c0-3.2,2.6-5.9,5.9-5.9l0,0c3.2,0,5.9,2.6,5.9,5.9l0,0c0,3.2-2.6,5.9-5.9,5.9l0,0
				C166.1,220.3,163.5,217.6,163.5,214.4z M130.4,214.4c0-3.2,2.6-5.9,5.9-5.9l0,0c3.2,0,5.9,2.6,5.9,5.9l0,0c0,3.2-2.6,5.9-5.9,5.9l0,0
				C133.1,220.3,130.4,217.6,130.4,214.4z M97.4,214.4c0-3.2,2.6-5.9,5.9-5.9l0,0c3.2,0,5.9,2.6,5.9,5.9l0,0c0,3.2-2.6,5.9-5.9,5.9l0,0
				C100,220.3,97.4,217.6,97.4,214.4z M64.3,214.4c0-3.2,2.6-5.9,5.9-5.9l0,0c3.2,0,5.9,2.6,5.9,5.9l0,0c0,3.2-2.6,5.9-5.9,5.9l0,0
				C66.9,220.3,64.3,217.6,64.3,214.4z M31.2,214.4c0-3.2,2.6-5.9,5.9-5.9l0,0c3.2,0,5.9,2.6,5.9,5.9l0,0c0,3.2-2.6,5.9-5.9,5.9l0,0
				C33.9,220.3,31.2,217.6,31.2,214.4z M25.8,197.2c-0.6-3.2,1.4-6.3,4.6-6.9l0,0c3.2-0.6,6.3,1.4,6.9,4.6l0,0c0.6,3.2-1.4,6.3-4.6,6.9
				l0,0c-0.4,0.1-0.8,0.1-1.1,0.1l0,0C28.8,203.5,8.3,201.6,7.7,198.9z M974.6,203.3c-3.2-0.6-5.3-3.7-4.7-6.9l0,0
				c0.6-3.2,3.7-5.3,6.9-4.7l0,0c3.2,0.6,5.3,3.7,4.7,6.9l0,0c-0.5,2.8-3,4.8-5.8,4.8l0,0C986.2,203.4,985.8,203.3,985.5,203.3z
				 M25.4,164.7c0-3.2,2.6-5.9,5.9-5.9l0,0c3.2,0,5.9,2.6,5.9,5.9l0,0c0,3.2-2.6,5.9-5.9,5.9l0,0C28.1,170.5,7.1,167.9,7.1,164.7z
				 M974.6,164.5c0-3.2,2.6-5.9,5.9-5.9l0,0c3.2,0,5.9,2.6,5.9,5.9l0,0c0,3.2-2.6,5.9-5.9,5.9l0,0
				C977.3,170.3,981.1,167.7,981.1,164.5z M25.4,131.6c0-3.2,2.6-5.9,5.9-5.9l0,0c3.2,0,5.9,2.6,5.9,5.9l0,0c0,3.2-2.6,5.9-5.9,5.9
				l0,0C28.1,137.5,7.1,134.8,7.1,131.6z M974.6,131.4c0-3.2,2.6-5.9,5.9-5.9l0,0c3.2,0,5.9,2.6,5.9,5.9l0,0c0,3.2-2.6,5.9-5.9,5.9
				l0,0C977.3,137.3,981.1,134.6,981.1,131.4z M25.4,98.5c0-3.2,2.6-5.9,5.9-5.9l0,0c3.2,0,5.9,2.6,5.9,5.9l0,0
				c0,3.2-2.6,5.9-5.9,5.9l0,0C28.1,104.4,7.1,101.8,7.1,98.5z M974.6,98.3c0-3.2,2.6-5.9,5.9-5.9l0,0c3.2,0,5.9,2.6,5.9,5.9l0,0
				c0,3.2-2.6,5.9-5.9,5.9l0,0C977.3,104.2,981.1,101.6,981.1,98.3z M25.4,65.5c0-3.2,2.6-5.9,5.9-5.9l0,0c3.2,0,5.9,2.6,5.9,5.9l0,0
				c0,3.2-2.6,5.9-5.9,5.9l0,0C28.1,71.3,7.1,68.7,7.1,65.5z M974.6,65.3c0-3.2,2.6-5.9,5.9-5.9l0,0c3.2,0,5.9,2.6,5.9,5.9l0,0
				c0,3.2-2.6,5.9-5.9,5.9l0,0C977.3,71.1,981.1,68.5,981.1,65.3z M30.4,38.1c-3.2-0.6-5.3-3.7-4.6-6.9l0,0c0.6-3.2,3.7-5.3,6.9-4.6
				l0,0c3.2,0.6,5.3,3.7,4.7,6.9l0,0c-0.5,2.8-3,4.8-5.7,4.8l0,0C13.1,38.3,12.7,38.3,12.3,38.2z M974.6,33.4
				c-0.6-3.2,1.4-6.3,4.6-6.9l0,0c3.2-0.6,6.3,1.4,6.9,4.6l0,0c0.6,3.2-1.4,6.3-4.6,6.9l0,0c-0.4,0.1-0.8,0.1-1.2,0.1l0,0
				C983.8,38.1,981.3,36.2,980.8,33.4z M31.1,15.6c0-3.2,2.6-5.9,5.9-5.9l0,0c3.2,0,5.9,2.6,5.9,5.9l0,0c0,3.2-2.6,5.9-5.8,5.9l0,0
				l0,0l0,0C33.7,21.5,31.1,18.2,31.1,15.6z M957,15.6c0-3.2,2.6-5.9,5.9-5.9l0,0c3.2,0,5.9,2.6,5.9,5.9l0,0c0,3.2-2.6,5.9-5.9,5.9l0,0
				C959.6,21.5,957,18.2,957,15.6z M923.9,15.6c0-3.2,2.6-5.9,5.9-5.9l0,0c3.2,0,5.9,2.6,5.9,5.9l0,0c0,3.2-2.6,5.9-5.9,5.9l0,0
				C926.5,21.5,923.9,18.2,923.9,15.6z M890.9,15.6c0-3.2,2.6-5.9,5.9-5.9l0,0c3.2,0,5.9,2.6,5.9,5.9l0,0c0,3.2-2.6,5.9-5.9,5.9l0,0
				C893.5,21.5,890.9,18.2,890.9,15.6z M857.8,15.6c0-3.2,2.6-5.9,5.9-5.9l0,0c3.2,0,5.9,2.6,5.9,5.9l0,0c0,3.2-2.6,5.9-5.9,5.9l0,0
				C860.4,21.5,857.8,18.2,857.8,15.6z M824.7,15.6c0-3.2,2.6-5.9,5.9-5.9l0,0c3.2,0,5.9,2.6,5.9,5.9l0,0c0,3.2-2.6,5.9-5.9,5.9l0,0
				C827.3,21.5,824.7,18.2,824.7,15.6z M791.6,15.6c0-3.2,2.6-5.9,5.9-5.9l0,0c3.2,0,5.9,2.6,5.9,5.9l0,0c0,3.2-2.6,5.9-5.9,5.9l0,0
				C794.3,21.5,791.6,18.2,791.6,15.6z M758.6,15.6c0-3.2,2.6-5.9,5.9-5.9l0,0c3.2,0,5.9,2.6,5.9,5.9l0,0c0,3.2-2.6,5.9-5.9,5.9l0,0
				C761.2,21.5,758.6,18.2,758.6,15.6z M725.5,15.6c0-3.2,2.6-5.9,5.9-5.9l0,0c3.2,0,5.9,2.6,5.9,5.9l0,0c0,3.2-2.6,5.9-5.9,5.9l0,0
				C728.1,21.5,725.5,18.2,725.5,15.6z M692.4,15.6c0-3.2,2.6-5.9,5.9-5.9l0,0c3.2,0,5.9,2.6,5.9,5.9l0,0c0,3.2-2.6,5.9-5.9,5.9l0,0
				C695.1,21.5,692.4,18.2,692.4,15.6z M659.4,15.6c0-3.2,2.6-5.9,5.9-5.9l0,0c3.2,0,5.9,2.6,5.9,5.9l0,0c0,3.2-2.6,5.9-5.9,5.9l0,0
				C662,21.5,659.4,18.2,659.4,15.6z M626.3,15.6c0-3.2,2.6-5.9,5.9-5.9l0,0c3.2,0,5.9,2.6,5.9,5.9l0,0c0,3.2-2.6,5.9-5.9,5.9l0,0
				C628.9,21.5,626.3,18.2,626.3,15.6z M593.2,15.6c0-3.2,2.6-5.9,5.9-5.9l0,0c3.2,0,5.9,2.6,5.9,5.9l0,0c0,3.2-2.6,5.9-5.9,5.9l0,0
				C595.9,21.5,593.2,18.2,593.2,15.6z M560.2,15.6c0-3.2,2.6-5.9,5.9-5.9l0,0c3.2,0,5.9,2.6,5.9,5.9l0,0c0,3.2-2.6,5.9-5.9,5.9l0,0
				C562.8,21.5,560.2,18.2,560.2,15.6z M527.1,15.6c0-3.2,2.6-5.9,5.9-5.9l0,0c3.2,0,5.9,2.6,5.9,5.9l0,0c0,3.2-2.6,5.9-5.9,5.9l0,0
				C529.7,21.5,527.1,18.2,527.1,15.6z M494,15.6c0-3.2,2.6-5.9,5.9-5.9l0,0c3.2,0,5.9,2.6,5.9,5.9l0,0c0,3.2-2.6,5.9-5.9,5.9l0,0
				C496.7,21.5,494,18.2,494,15.6z M461,15.6c0-3.2,2.6-5.9,5.9-5.9l0,0c3.2,0,5.9,2.6,5.9,5.9l0,0c0,3.2-2.6,5.9-5.9,5.9l0,0
				C463.6,21.5,461,18.2,461,15.6z M427.9,15.6c0-3.2,2.6-5.9,5.9-5.9l0,0c3.2,0,5.9,2.6,5.9,5.9l0,0c0,3.2-2.6,5.9-5.9,5.9l0,0
				C430.5,21.5,427.9,18.2,427.9,15.6z M394.8,15.6c0-3.2,2.6-5.9,5.9-5.9l0,0c3.2,0,5.9,2.6,5.9,5.9l0,0c0,3.2-2.6,5.9-5.9,5.9l0,0
				C397.5,21.5,394.8,18.2,394.8,15.6z M361.8,15.6c0-3.2,2.6-5.9,5.9-5.9l0,0c3.2,0,5.9,2.6,5.9,5.9l0,0c0,3.2-2.6,5.9-5.9,5.9l0,0
				C364.4,21.5,361.8,18.2,361.8,15.6z M328.7,15.6c0-3.2,2.6-5.9,5.9-5.9l0,0c3.2,0,5.9,2.6,5.9,5.9l0,0c0,3.2-2.6,5.9-5.9,5.9l0,0
				C331.3,21.5,328.7,18.2,328.7,15.6z M295.6,15.6c0-3.2,2.6-5.9,5.9-5.9l0,0c3.2,0,5.9,2.6,5.9,5.9l0,0c0,3.2-2.6,5.9-5.9,5.9l0,0
				C298.3,21.5,295.6,18.2,295.6,15.6z M262.6,15.6c0-3.2,2.6-5.9,5.9-5.9l0,0c3.2,0,5.9,2.6,5.9,5.9l0,0c0,3.2-2.6,5.9-5.9,5.9l0,0
				C265.2,21.5,262.6,18.2,262.6,15.6z M229.5,15.6c0-3.2,2.6-5.9,5.9-5.9l0,0c3.2,0,5.9,2.6,5.9,5.9l0,0c0,3.2-2.6,5.9-5.9,5.9l0,0
				C232.1,21.5,229.5,18.2,229.5,15.6z M196.4,15.6c0-3.2,2.6-5.9,5.9-5.9l0,0c3.2,0,5.9,2.6,5.9,5.9l0,0c0,3.2-2.6,5.9-5.9,5.9l0,0
				C199,21.5,196.4,18.2,196.4,15.6z M163.4,15.6c0-3.2,2.6-5.9,5.9-5.9l0,0c3.2,0,5.9,2.6,5.9,5.9l0,0c0,3.2-2.6,5.9-5.9,5.9l0,0
				C166,21.5,163.4,18.2,163.4,15.6z M130.3,15.6c0-3.2,2.6-5.9,5.9-5.9l0,0c3.2,0,5.9,2.6,5.9,5.9l0,0c0,3.2-2.6,5.9-5.9,5.9l0,0
				C132.9,21.5,130.3,18.2,130.3,15.6z M97.2,15.6c0-3.2,2.6-5.9,5.9-5.9l0,0c3.2,0,5.9,2.6,5.9,5.9l0,0c0,3.2-2.6,5.9-5.9,5.9l0,0
				C99.8,21.5,97.2,18.2,97.2,15.6z M64.2,15.6c0-3.2,2.6-5.9,5.9-5.9l0,0c3.2,0,5.9,2.6,5.9,5.9l0,0c0,3.2-2.6,5.9-5.9,5.9l0,0
				C66.8,21.5,64.2,18.2,64.2,15.6z"M25.4,24.0c0-3.2,2.6-5.9,5.9-5.9l0,0c3.2,0,5.9,2.6,5.9,5.9l0,0c0,3.2-2.6,5.9-5.9,5.9l0,0C28.0,29.9,25.4,27.2,25.4,24.0z M29.4,33.6c0-3.2,2.6-5.9,5.9-5.9l0,0c3.2,0,5.9,2.6,5.9,5.9l0,0c0,3.2-2.6,5.9-5.9,5.9l0,0C32.0,39.5,29.4,36.8,29.4,33.6z M39.1,37.6c0-3.2,2.6-5.9,5.9-5.9l0,0c3.2,0,5.9,2.6,5.9,5.9l0,0c0,3.2-2.6,5.9-5.9,5.9l0,0C41.7,43.5,39.1,40.8,39.1,37.6z M960.9,37.6c0-3.2,2.6-5.9,5.9-5.9l0,0c3.2,0,5.9,2.6,5.9,5.9l0,0c0,3.2-2.6,5.9-5.9,5.9l0,0C963.5,43.5,960.9,40.8,960.9,37.6z M970.6,33.6c0-3.2,2.6-5.9,5.9-5.9l0,0c3.2,0,5.9,2.6,5.9,5.9l0,0c0,3.2-2.6,5.9-5.9,5.9l0,0C973.2,39.5,970.6,36.8,970.6,33.6z M974.6,24.0c0-3.2,2.6-5.9,5.9-5.9l0,0c3.2,0,5.9,2.6,5.9,5.9l0,0c0,3.2-2.6,5.9-5.9,5.9l0,0C977.2,29.9,974.6,27.2,974.6,24.0z M974.6,206.0c0-3.2,2.6-5.9,5.9-5.9l0,0c3.2,0,5.9,2.6,5.9,5.9l0,0c0,3.2-2.6,5.9-5.9,5.9l0,0C977.2,211.9,974.6,209.2,974.6,206.0z M970.6,196.4c0-3.2,2.6-5.9,5.9-5.9l0,0c3.2,0,5.9,2.6,5.9,5.9l0,0c0,3.2-2.6,5.9-5.9,5.9l0,0C973.2,202.3,970.6,199.6,970.6,196.4z M960.9,192.4c0-3.2,2.6-5.9,5.9-5.9l0,0c3.2,0,5.9,2.6,5.9,5.9l0,0c0,3.2-2.6,5.9-5.9,5.9l0,0C963.5,198.3,960.9,195.6,960.9,192.4z M39.1,192.4c0-3.2,2.6-5.9,5.9-5.9l0,0c3.2,0,5.9,2.6,5.9,5.9l0,0c0,3.2-2.6,5.9-5.9,5.9l0,0C41.7,198.3,39.1,195.6,39.1,192.4z M29.4,196.4c0-3.2,2.6-5.9,5.9-5.9l0,0c3.2,0,5.9,2.6,5.9,5.9l0,0c0,3.2-2.6,5.9-5.9,5.9l0,0C32.0,202.3,29.4,199.6,29.4,196.4z M25.4,206.0c0-3.2,2.6-5.9,5.9-5.9l0,0c3.2,0,5.9,2.6,5.9,5.9l0,0c0,3.2-2.6,5.9-5.9,5.9l0,0C28.0,211.9,25.4,209.2,25.4,206.0z />
		</g>
	</g>
</g>
</svg>
